<svg width="520" height="163" viewBox="0 0 520 163" fill="none" xmlns="http://www.w3.org/2000/svg">
<path d="M201.052 146.608C198.192 146.608 195.442 146.149 192.802 145.233C190.198 144.279 188.182 143.069 186.752 141.603L188.347 138.468C189.703 139.788 191.518 140.906 193.792 141.823C196.102 142.703 198.522 143.143 201.052 143.143C203.472 143.143 205.433 142.849 206.937 142.263C208.477 141.639 209.595 140.814 210.292 139.788C211.025 138.761 211.392 137.624 211.392 136.378C211.392 134.874 210.952 133.664 210.072 132.748C209.228 131.831 208.11 131.116 206.717 130.603C205.323 130.053 203.783 129.576 202.097 129.173C200.41 128.769 198.723 128.348 197.037 127.908C195.35 127.431 193.792 126.808 192.362 126.038C190.968 125.268 189.832 124.259 188.952 123.013C188.108 121.729 187.687 120.061 187.687 118.008C187.687 116.101 188.182 114.359 189.172 112.783C190.198 111.169 191.757 109.886 193.847 108.933C195.937 107.943 198.613 107.448 201.877 107.448C204.04 107.448 206.185 107.759 208.312 108.383C210.438 108.969 212.272 109.794 213.812 110.858L212.437 114.103C210.787 113.003 209.027 112.196 207.157 111.683C205.323 111.169 203.545 110.913 201.822 110.913C199.512 110.913 197.605 111.224 196.102 111.848C194.598 112.471 193.48 113.314 192.747 114.378C192.05 115.404 191.702 116.578 191.702 117.898C191.702 119.401 192.123 120.611 192.967 121.528C193.847 122.444 194.983 123.159 196.377 123.673C197.807 124.186 199.365 124.644 201.052 125.048C202.738 125.451 204.407 125.891 206.057 126.368C207.743 126.844 209.283 127.468 210.677 128.238C212.107 128.971 213.243 129.961 214.087 131.208C214.967 132.454 215.407 134.086 215.407 136.103C215.407 137.973 214.893 139.714 213.867 141.328C212.84 142.904 211.263 144.188 209.137 145.178C207.047 146.131 204.352 146.608 201.052 146.608ZM242.975 146.278V107.778H257.385C260.648 107.778 263.453 108.309 265.8 109.373C268.146 110.399 269.943 111.903 271.19 113.883C272.473 115.826 273.115 118.191 273.115 120.978C273.115 123.691 272.473 126.038 271.19 128.018C269.943 129.961 268.146 131.464 265.8 132.528C263.453 133.591 260.648 134.123 257.385 134.123H245.23L247.045 132.198V146.278H242.975ZM247.045 132.528L245.23 130.548H257.275C261.125 130.548 264.04 129.723 266.02 128.073C268.036 126.386 269.045 124.021 269.045 120.978C269.045 117.898 268.036 115.514 266.02 113.828C264.04 112.141 261.125 111.298 257.275 111.298H245.23L247.045 109.373V132.528ZM317.982 146.608C315.086 146.608 312.391 146.131 309.897 145.178C307.441 144.188 305.296 142.813 303.462 141.053C301.666 139.256 300.254 137.184 299.227 134.838C298.237 132.454 297.742 129.851 297.742 127.028C297.742 124.204 298.237 121.619 299.227 119.273C300.254 116.889 301.666 114.818 303.462 113.058C305.296 111.261 307.441 109.886 309.897 108.933C312.354 107.943 315.049 107.448 317.982 107.448C320.879 107.448 323.556 107.943 326.012 108.933C328.469 109.886 330.596 111.243 332.392 113.003C334.226 114.763 335.637 116.834 336.627 119.218C337.654 121.601 338.167 124.204 338.167 127.028C338.167 129.851 337.654 132.454 336.627 134.838C335.637 137.221 334.226 139.293 332.392 141.053C330.596 142.813 328.469 144.188 326.012 145.178C323.556 146.131 320.879 146.608 317.982 146.608ZM317.982 142.978C320.292 142.978 322.419 142.593 324.362 141.823C326.342 141.016 328.047 139.898 329.477 138.468C330.944 137.001 332.081 135.314 332.887 133.408C333.694 131.464 334.097 129.338 334.097 127.028C334.097 124.718 333.694 122.609 332.887 120.703C332.081 118.759 330.944 117.073 329.477 115.643C328.047 114.176 326.342 113.058 324.362 112.288C322.419 111.481 320.292 111.078 317.982 111.078C315.672 111.078 313.527 111.481 311.547 112.288C309.567 113.058 307.844 114.176 306.377 115.643C304.947 117.073 303.811 118.759 302.967 120.703C302.161 122.609 301.757 124.718 301.757 127.028C301.757 129.301 302.161 131.409 302.967 133.353C303.811 135.296 304.947 137.001 306.377 138.468C307.844 139.898 309.567 141.016 311.547 141.823C313.527 142.593 315.672 142.978 317.982 142.978ZM365.99 146.278V107.778H380.4C383.663 107.778 386.468 108.309 388.815 109.373C391.162 110.399 392.958 111.903 394.205 113.883C395.488 115.826 396.13 118.191 396.13 120.978C396.13 123.691 395.488 126.038 394.205 128.018C392.958 129.961 391.162 131.464 388.815 132.528C386.468 133.554 383.663 134.068 380.4 134.068H368.245L370.06 132.198V146.278H365.99ZM392.28 146.278L382.38 132.308H386.78L396.735 146.278H392.28ZM370.06 132.528L368.245 130.603H380.29C384.14 130.603 387.055 129.759 389.035 128.073C391.052 126.386 392.06 124.021 392.06 120.978C392.06 117.898 391.052 115.514 389.035 113.828C387.055 112.141 384.14 111.298 380.29 111.298H368.245L370.06 109.373V132.528ZM431.379 146.278V111.298H417.849V107.778H448.979V111.298H435.449V146.278H431.379ZM484.205 146.608C481.345 146.608 478.595 146.149 475.955 145.233C473.352 144.279 471.335 143.069 469.905 141.603L471.5 138.468C472.857 139.788 474.672 140.906 476.945 141.823C479.255 142.703 481.675 143.143 484.205 143.143C486.625 143.143 488.587 142.849 490.09 142.263C491.63 141.639 492.748 140.814 493.445 139.788C494.178 138.761 494.545 137.624 494.545 136.378C494.545 134.874 494.105 133.664 493.225 132.748C492.382 131.831 491.263 131.116 489.87 130.603C488.477 130.053 486.937 129.576 485.25 129.173C483.563 128.769 481.877 128.348 480.19 127.908C478.503 127.431 476.945 126.808 475.515 126.038C474.122 125.268 472.985 124.259 472.105 123.013C471.262 121.729 470.84 120.061 470.84 118.008C470.84 116.101 471.335 114.359 472.325 112.783C473.352 111.169 474.91 109.886 477 108.933C479.09 107.943 481.767 107.448 485.03 107.448C487.193 107.448 489.338 107.759 491.465 108.383C493.592 108.969 495.425 109.794 496.965 110.858L495.59 114.103C493.94 113.003 492.18 112.196 490.31 111.683C488.477 111.169 486.698 110.913 484.975 110.913C482.665 110.913 480.758 111.224 479.255 111.848C477.752 112.471 476.633 113.314 475.9 114.378C475.203 115.404 474.855 116.578 474.855 117.898C474.855 119.401 475.277 120.611 476.12 121.528C477 122.444 478.137 123.159 479.53 123.673C480.96 124.186 482.518 124.644 484.205 125.048C485.892 125.451 487.56 125.891 489.21 126.368C490.897 126.844 492.437 127.468 493.83 128.238C495.26 128.971 496.397 129.961 497.24 131.208C498.12 132.454 498.56 134.086 498.56 136.103C498.56 137.973 498.047 139.714 497.02 141.328C495.993 142.904 494.417 144.188 492.29 145.178C490.2 146.131 487.505 146.608 484.205 146.608Z" fill="white"/>
<path d="M263.166 76.5348C260.352 78.8583 257.25 80.7987 253.868 82.3476C250.481 83.8966 246.893 85.0831 243.099 85.8947C239.305 86.7145 235.49 87.1223 231.659 87.1223C225.867 87.2047 220.787 86.0388 216.428 83.633C212.066 81.2271 208.412 78.0632 205.478 74.1495C202.541 70.2318 200.354 65.766 198.928 60.7483C197.503 55.7306 196.786 50.614 196.786 45.3944C196.786 40.1748 197.523 35.05 198.994 30.0363C200.457 25.0186 202.665 20.5364 205.598 16.5775C208.535 12.6226 212.185 9.44224 216.548 7.03637C220.911 4.63049 225.994 3.42343 231.782 3.42343C235.21 3.42343 238.757 3.81068 242.428 4.58517C246.098 5.35966 249.625 6.52139 253.015 8.0745C256.393 9.62349 259.561 11.5844 262.498 13.945C265.432 16.3138 267.924 19.0863 269.963 22.2667L273.02 20.4334C269.267 14.4806 263.924 9.59052 256.995 5.75101C250.057 1.91974 241.612 0 231.663 0C223.588 0 216.507 1.28533 210.43 3.86011C204.354 6.42665 199.295 9.83359 195.258 14.0727C191.22 18.3118 188.18 23.1483 186.141 28.5697C184.102 33.9994 183.084 39.5198 183.084 45.1513C183.084 50.7788 184.102 56.3073 186.141 61.7329C188.18 67.1585 191.22 71.9908 195.258 76.2299C199.295 80.4691 204.354 83.876 210.43 86.4508C216.507 89.0173 223.588 90.3027 231.663 90.3027C241.612 90.3027 250.02 88.4035 256.871 84.6093C263.722 80.8193 269.065 75.9457 272.896 69.9928L270.083 68.3985C268.287 71.4965 265.98 74.2113 263.166 76.5348Z" fill="white"/>
<path d="M351.252 1.95718H340.483L300.959 88.099H306.1L316.012 66.5656H367.524L377.313 88.099H391.381L351.252 1.95718ZM318.212 61.9145L341.949 10.4025L365.316 61.9145H318.212Z" fill="white"/>
<path d="M509.167 6.72747V1.95279H444.929V88.0946H457.045V44.6612H493.508V39.8865H457.045V6.73157H509.167V6.72747Z" fill="white"/>
<path d="M263.166 76.5348C260.352 78.8583 257.25 80.7987 253.868 82.3476C250.481 83.8966 246.893 85.0831 243.099 85.8947C239.305 86.7145 235.49 87.1223 231.659 87.1223C225.867 87.2047 220.787 86.0388 216.428 83.633C212.066 81.2271 208.412 78.0632 205.478 74.1495C202.541 70.2318 200.354 65.766 198.928 60.7483C197.503 55.7306 196.786 50.614 196.786 45.3944C196.786 40.1748 197.523 35.05 198.994 30.0363C200.457 25.0186 202.665 20.5364 205.598 16.5775C208.535 12.6226 212.185 9.44224 216.548 7.03637C220.911 4.63049 225.994 3.42343 231.782 3.42343C235.21 3.42343 238.757 3.81068 242.428 4.58517C246.098 5.35966 249.625 6.52139 253.015 8.0745C256.393 9.62349 259.561 11.5844 262.498 13.945C265.432 16.3138 267.924 19.0863 269.963 22.2667L273.02 20.4334C269.267 14.4806 263.924 9.59052 256.995 5.75101C250.057 1.91974 241.612 0 231.663 0C223.588 0 216.507 1.28533 210.43 3.86011C204.354 6.42665 199.295 9.83359 195.258 14.0727C191.22 18.3118 188.18 23.1483 186.141 28.5697C184.102 33.9994 183.084 39.5198 183.084 45.1513C183.084 50.7788 184.102 56.3073 186.141 61.7329C188.18 67.1585 191.22 71.9908 195.258 76.2299C199.295 80.4691 204.354 83.876 210.43 86.4508C216.507 89.0173 223.588 90.3027 231.663 90.3027C241.612 90.3027 250.02 88.4035 256.871 84.6093C263.722 80.8193 269.065 75.9457 272.896 69.9928L270.083 68.3985C268.287 71.4965 265.98 74.2113 263.166 76.5348Z" fill="white"/>
<path d="M351.252 1.95718H340.483L300.959 88.099H306.1L316.012 66.5656H367.524L377.313 88.099H391.381L351.252 1.95718ZM318.212 61.9145L341.949 10.4025L365.316 61.9145H318.212Z" fill="white"/>
<path d="M509.167 6.72747V1.95279H444.929V88.0946H457.045V44.6612H493.508V39.8865H457.045V6.73157H509.167V6.72747Z" fill="white"/>
<path d="M148.056 0V148.056H0V84.601H21.1515V126.904H126.904V0H148.056Z" fill="white"/>
<path d="M104.722 0V21.6719H20.9455V65H0V0H104.722Z" fill="#00A44F"/>
<path d="M61.3853 63.7963V84.2543H104.722V104.722H39.7222V43.3333H104.722V63.7963H61.3853Z" fill="white"/>
</svg>
