<svg width="144" height="45" viewBox="0 0 144 45" fill="none" xmlns="http://www.w3.org/2000/svg">
<path d="M55.912 41.096C55.08 41.096 54.28 40.9627 53.512 40.696C52.7547 40.4187 52.168 40.0667 51.752 39.64L52.216 38.728C52.6107 39.112 53.1387 39.4373 53.8 39.704C54.472 39.96 55.176 40.088 55.912 40.088C56.616 40.088 57.1867 40.0027 57.624 39.832C58.072 39.6507 58.3973 39.4107 58.6 39.112C58.8133 38.8133 58.92 38.4827 58.92 38.12C58.92 37.6827 58.792 37.3307 58.536 37.064C58.2907 36.7973 57.9653 36.5893 57.56 36.44C57.1547 36.28 56.7067 36.1413 56.216 36.024C55.7253 35.9067 55.2347 35.784 54.744 35.656C54.2533 35.5173 53.8 35.336 53.384 35.112C52.9787 34.888 52.648 34.5947 52.392 34.232C52.1467 33.8587 52.024 33.3733 52.024 32.776C52.024 32.2213 52.168 31.7147 52.456 31.256C52.7547 30.7867 53.208 30.4133 53.816 30.136C54.424 29.848 55.2027 29.704 56.152 29.704C56.7813 29.704 57.4053 29.7947 58.024 29.976C58.6427 30.1467 59.176 30.3867 59.624 30.696L59.224 31.64C58.744 31.32 58.232 31.0853 57.688 30.936C57.1547 30.7867 56.6373 30.712 56.136 30.712C55.464 30.712 54.9093 30.8027 54.472 30.984C54.0347 31.1653 53.7093 31.4107 53.496 31.72C53.2933 32.0187 53.192 32.36 53.192 32.744C53.192 33.1813 53.3147 33.5333 53.56 33.8C53.816 34.0667 54.1467 34.2747 54.552 34.424C54.968 34.5733 55.4213 34.7067 55.912 34.824C56.4027 34.9413 56.888 35.0693 57.368 35.208C57.8587 35.3467 58.3067 35.528 58.712 35.752C59.128 35.9653 59.4587 36.2533 59.704 36.616C59.96 36.9787 60.088 37.4533 60.088 38.04C60.088 38.584 59.9387 39.0907 59.64 39.56C59.3413 40.0187 58.8827 40.392 58.264 40.68C57.656 40.9573 56.872 41.096 55.912 41.096ZM68.1078 41V29.8H72.2998C73.2491 29.8 74.0651 29.9547 74.7478 30.264C75.4304 30.5627 75.9531 31 76.3158 31.576C76.6891 32.1413 76.8758 32.8293 76.8758 33.64C76.8758 34.4293 76.6891 35.112 76.3158 35.688C75.9531 36.2533 75.4304 36.6907 74.7478 37C74.0651 37.3093 73.2491 37.464 72.2998 37.464H68.7638L69.2918 36.904V41H68.1078ZM69.2918 37L68.7638 36.424H72.2678C73.3878 36.424 74.2358 36.184 74.8118 35.704C75.3984 35.2133 75.6918 34.5253 75.6918 33.64C75.6918 32.744 75.3984 32.0507 74.8118 31.56C74.2358 31.0693 73.3878 30.824 72.2678 30.824H68.7638L69.2918 30.264V37ZM89.9281 41.096C89.0855 41.096 88.3015 40.9573 87.5761 40.68C86.8615 40.392 86.2375 39.992 85.7041 39.48C85.1815 38.9573 84.7708 38.3547 84.4721 37.672C84.1841 36.9787 84.0401 36.2213 84.0401 35.4C84.0401 34.5787 84.1841 33.8267 84.4721 33.144C84.7708 32.4507 85.1815 31.848 85.7041 31.336C86.2375 30.8133 86.8615 30.4133 87.5761 30.136C88.2908 29.848 89.0748 29.704 89.9281 29.704C90.7708 29.704 91.5495 29.848 92.2641 30.136C92.9788 30.4133 93.5975 30.808 94.1201 31.32C94.6535 31.832 95.0641 32.4347 95.3521 33.128C95.6508 33.8213 95.8001 34.5787 95.8001 35.4C95.8001 36.2213 95.6508 36.9787 95.3521 37.672C95.0641 38.3653 94.6535 38.968 94.1201 39.48C93.5975 39.992 92.9788 40.392 92.2641 40.68C91.5495 40.9573 90.7708 41.096 89.9281 41.096ZM89.9281 40.04C90.6001 40.04 91.2188 39.928 91.7841 39.704C92.3601 39.4693 92.8561 39.144 93.2721 38.728C93.6988 38.3013 94.0295 37.8107 94.2641 37.256C94.4988 36.6907 94.6161 36.072 94.6161 35.4C94.6161 34.728 94.4988 34.1147 94.2641 33.56C94.0295 32.9947 93.6988 32.504 93.2721 32.088C92.8561 31.6613 92.3601 31.336 91.7841 31.112C91.2188 30.8773 90.6001 30.76 89.9281 30.76C89.2561 30.76 88.6321 30.8773 88.0561 31.112C87.4801 31.336 86.9788 31.6613 86.5521 32.088C86.1361 32.504 85.8055 32.9947 85.5601 33.56C85.3255 34.1147 85.2081 34.728 85.2081 35.4C85.2081 36.0613 85.3255 36.6747 85.5601 37.24C85.8055 37.8053 86.1361 38.3013 86.5521 38.728C86.9788 39.144 87.4801 39.4693 88.0561 39.704C88.6321 39.928 89.2561 40.04 89.9281 40.04ZM103.894 41V29.8H108.086C109.035 29.8 109.851 29.9547 110.534 30.264C111.217 30.5627 111.739 31 112.102 31.576C112.475 32.1413 112.662 32.8293 112.662 33.64C112.662 34.4293 112.475 35.112 112.102 35.688C111.739 36.2533 111.217 36.6907 110.534 37C109.851 37.2987 109.035 37.448 108.086 37.448H104.55L105.078 36.904V41H103.894ZM111.542 41L108.662 36.936H109.942L112.838 41H111.542ZM105.078 37L104.55 36.44H108.054C109.174 36.44 110.022 36.1947 110.598 35.704C111.185 35.2133 111.478 34.5253 111.478 33.64C111.478 32.744 111.185 32.0507 110.598 31.56C110.022 31.0693 109.174 30.824 108.054 30.824H104.55L105.078 30.264V37ZM122.916 41V30.824H118.98V29.8H128.036V30.824H124.1V41H122.916ZM138.284 41.096C137.452 41.096 136.652 40.9627 135.884 40.696C135.127 40.4187 134.54 40.0667 134.124 39.64L134.588 38.728C134.983 39.112 135.511 39.4373 136.172 39.704C136.844 39.96 137.548 40.088 138.284 40.088C138.988 40.088 139.559 40.0027 139.996 39.832C140.444 39.6507 140.769 39.4107 140.972 39.112C141.185 38.8133 141.292 38.4827 141.292 38.12C141.292 37.6827 141.164 37.3307 140.908 37.064C140.663 36.7973 140.337 36.5893 139.932 36.44C139.527 36.28 139.079 36.1413 138.588 36.024C138.097 35.9067 137.607 35.784 137.116 35.656C136.625 35.5173 136.172 35.336 135.756 35.112C135.351 34.888 135.02 34.5947 134.764 34.232C134.519 33.8587 134.396 33.3733 134.396 32.776C134.396 32.2213 134.54 31.7147 134.828 31.256C135.127 30.7867 135.58 30.4133 136.188 30.136C136.796 29.848 137.575 29.704 138.524 29.704C139.153 29.704 139.777 29.7947 140.396 29.976C141.015 30.1467 141.548 30.3867 141.996 30.696L141.596 31.64C141.116 31.32 140.604 31.0853 140.06 30.936C139.527 30.7867 139.009 30.712 138.508 30.712C137.836 30.712 137.281 30.8027 136.844 30.984C136.407 31.1653 136.081 31.4107 135.868 31.72C135.665 32.0187 135.564 32.36 135.564 32.744C135.564 33.1813 135.687 33.5333 135.932 33.8C136.188 34.0667 136.519 34.2747 136.924 34.424C137.34 34.5733 137.793 34.7067 138.284 34.824C138.775 34.9413 139.26 35.0693 139.74 35.208C140.231 35.3467 140.679 35.528 141.084 35.752C141.5 35.9653 141.831 36.2533 142.076 36.616C142.332 36.9787 142.46 37.4533 142.46 38.04C142.46 38.584 142.311 39.0907 142.012 39.56C141.713 40.0187 141.255 40.392 140.636 40.68C140.028 40.9573 139.244 41.096 138.284 41.096Z" fill="white"/>
<path d="M72.8767 21.1943C72.0975 21.8377 71.2384 22.375 70.3018 22.804C69.3641 23.2329 68.3704 23.5615 67.3197 23.7862C66.269 24.0132 65.2126 24.1262 64.1516 24.1262C62.5476 24.149 61.141 23.8261 59.934 23.1599C58.7259 22.4937 57.714 21.6175 56.9017 20.5337C56.0883 19.4488 55.4825 18.2121 55.0878 16.8226C54.693 15.4331 54.4945 14.0162 54.4945 12.5708C54.4945 11.1253 54.6988 9.70614 55.106 8.31776C55.511 6.92823 56.1225 5.68701 56.9348 4.59068C57.7482 3.49549 58.759 2.61477 59.9671 1.94853C61.1752 1.28229 62.583 0.948026 64.1859 0.948026C65.135 0.948026 66.1173 1.05526 67.1338 1.26974C68.1502 1.48421 69.1268 1.80592 70.0657 2.23602C71.0012 2.66497 71.8784 3.208 72.6919 3.86169C73.5041 4.51767 74.1943 5.28544 74.759 6.16616L75.6055 5.65849C74.5662 4.01 73.0866 2.65584 71.1677 1.59259C69.2466 0.53162 66.9079 0 64.1528 0C61.9168 0 59.9557 0.355937 58.273 1.06895C56.5902 1.77969 55.1893 2.72315 54.0713 3.89706C52.9533 5.07097 52.1114 6.4103 51.5467 7.91162C50.9819 9.41523 50.7002 10.9439 50.7002 12.5034C50.7002 14.0618 50.9819 15.5928 51.5467 17.0953C52.1114 18.5977 52.9533 19.9359 54.0713 21.1098C55.1893 22.2837 56.5902 23.2272 58.273 23.9402C59.9557 24.651 61.9168 25.0069 64.1528 25.0069C66.9079 25.0069 69.2363 24.481 71.1335 23.4303C73.0307 22.3807 74.5103 21.0311 75.5713 19.3826L74.7921 18.9411C74.2947 19.799 73.6559 20.5508 72.8767 21.1943Z" fill="white"/>
<path d="M97.2697 0.541891H94.2875L83.3425 24.3966H84.7662L87.511 18.4335H101.776L104.487 24.3966H108.382L97.2697 0.541891ZM88.1202 17.1455L94.6937 2.88058L101.164 17.1455H88.1202Z" fill="white"/>
<path d="M141 1.86297V0.540749H123.211V24.3954H126.566V12.3677H136.664V11.0455H126.566V1.8641H141V1.86297Z" fill="white"/>
<path d="M72.8767 21.1943C72.0975 21.8377 71.2384 22.375 70.3018 22.804C69.3641 23.2329 68.3704 23.5615 67.3197 23.7862C66.269 24.0132 65.2126 24.1262 64.1516 24.1262C62.5476 24.149 61.141 23.8261 59.934 23.1599C58.7259 22.4937 57.714 21.6175 56.9017 20.5337C56.0883 19.4488 55.4825 18.2121 55.0878 16.8226C54.693 15.4331 54.4945 14.0162 54.4945 12.5708C54.4945 11.1253 54.6988 9.70614 55.106 8.31776C55.511 6.92823 56.1225 5.68701 56.9348 4.59068C57.7482 3.49549 58.759 2.61477 59.9671 1.94853C61.1752 1.28229 62.583 0.948026 64.1859 0.948026C65.135 0.948026 66.1173 1.05526 67.1338 1.26974C68.1502 1.48421 69.1268 1.80592 70.0657 2.23602C71.0012 2.66497 71.8784 3.208 72.6919 3.86169C73.5041 4.51767 74.1943 5.28544 74.759 6.16616L75.6055 5.65849C74.5662 4.01 73.0866 2.65584 71.1677 1.59259C69.2466 0.53162 66.9079 0 64.1528 0C61.9168 0 59.9557 0.355937 58.273 1.06895C56.5902 1.77969 55.1893 2.72315 54.0713 3.89706C52.9533 5.07097 52.1114 6.4103 51.5467 7.91162C50.9819 9.41523 50.7002 10.9439 50.7002 12.5034C50.7002 14.0618 50.9819 15.5928 51.5467 17.0953C52.1114 18.5977 52.9533 19.9359 54.0713 21.1098C55.1893 22.2837 56.5902 23.2272 58.273 23.9402C59.9557 24.651 61.9168 25.0069 64.1528 25.0069C66.9079 25.0069 69.2363 24.481 71.1335 23.4303C73.0307 22.3807 74.5103 21.0311 75.5713 19.3826L74.7921 18.9411C74.2947 19.799 73.6559 20.5508 72.8767 21.1943Z" fill="white"/>
<path d="M97.2697 0.541891H94.2875L83.3425 24.3966H84.7662L87.511 18.4335H101.776L104.487 24.3966H108.382L97.2697 0.541891ZM88.1202 17.1455L94.6937 2.88058L101.164 17.1455H88.1202Z" fill="white"/>
<path d="M141 1.86297V0.540749H123.211V24.3954H126.566V12.3677H136.664V11.0455H126.566V1.8641H141V1.86297Z" fill="white"/>
<path d="M41 0V41H0V23.428H5.85735V35.1427H35.1427V0H41Z" fill="white"/>
<path d="M29 0V6.00146H5.80028V18H0V0H29Z" fill="#00A44F"/>
<path d="M16.999 17.6667V23.332H29V29H11V12H29V17.6667H16.999Z" fill="white"/>
</svg>
